<?xml version="1.0" encoding="UTF-8" standalone="no"?>
<svg
   xmlns:dc="http://purl.org/dc/elements/1.1/"
   xmlns:cc="http://creativecommons.org/ns#"
   xmlns:rdf="http://www.w3.org/1999/02/22-rdf-syntax-ns#"
   xmlns:svg="http://www.w3.org/2000/svg"
   xmlns="http://www.w3.org/2000/svg"
   version="1.1"
   id="svg2"
   viewBox="0 0 16 16"
   height="16"
   width="16">
  <style
     id="style935"></style>
  <defs
     id="defs4" />
  <metadata
     id="metadata7">
    <rdf:RDF>
      <cc:Work
         rdf:about="">
        <dc:format>image/svg+xml</dc:format>
        <dc:type
           rdf:resource="http://purl.org/dc/dcmitype/StillImage" />
        <dc:title></dc:title>
      </cc:Work>
    </rdf:RDF>
  </metadata>
  <g
     transform="translate(0,-1036.3622)"
     id="layer1">
    <path
       transform="translate(0,1036.3622)"
       d="M 13.451172 0.5 A 2 2 0 0 0 11.5 2.5 A 2 2 0 0 0 13.5 4.5 A 2 2 0 0 0 15.5 2.5 A 2 2 0 0 0 13.5 0.5 A 2 2 0 0 0 13.451172 0.5 z M 1 1 L 1 11 L 3 11 L 3 3 L 11 3 L 11 1 L 1 1 z M 13 5 L 13 13 L 5 13 L 5 15 L 15 15 L 15 5 L 13 5 z M 2.4511719 11.5 A 2 2 0 0 0 0.5 13.5 A 2 2 0 0 0 2.5 15.5 A 2 2 0 0 0 4.5 13.5 A 2 2 0 0 0 2.5 11.5 A 2 2 0 0 0 2.4511719 11.5 z "
       style="fill:#36a1ff;fill-opacity:1;stroke:none;stroke-width:0;stroke-linecap:round;stroke-linejoin:round;stroke-miterlimit:4;stroke-dasharray:none;stroke-opacity:0.996078"
       id="rect817" />
  </g>
</svg>
